<svg width="108" height="106" viewBox="0 0 108 106" fill="none" xmlns="http://www.w3.org/2000/svg">
<rect x="2.67969" y="3.13139" width="102.643" height="100.111" rx="50.0556" fill="#262626" stroke="#181818" stroke-width="5"/>
<path d="M58.487 38.2428V36.1595C58.487 33.8678 56.612 31.9928 54.3203 31.9928H45.987C43.6953 31.9928 41.8203 33.8678 41.8203 36.1595V38.2428C37.237 38.2428 33.487 41.9928 33.487 46.5762V69.4928C33.487 71.7845 35.362 73.6595 37.6536 73.6595H60.987L55.987 68.6595C54.737 67.6178 54.112 65.9512 54.112 64.4928V61.1595H43.9036V65.3262H41.8203V61.1595H37.6536V59.0762H54.3203V58.6595C54.3203 55.5345 56.8203 52.8262 60.1536 52.8262H66.8203V46.5762C66.8203 41.9928 63.0703 38.2428 58.487 38.2428ZM50.1536 54.9095L45.987 50.7428L50.1536 46.5762L54.3203 50.7428L50.1536 54.9095ZM54.3203 38.2428H45.987V36.1595H54.3203V38.2428ZM74.737 64.9095L67.237 57.4095C66.8203 57.2012 66.4036 56.9928 65.987 56.9928H60.1536C59.3203 56.9928 58.487 57.8262 58.487 58.6595V64.4928C58.487 64.9095 58.6953 65.3262 58.9036 65.7428L66.4036 73.2428C66.612 73.4512 67.0286 73.6595 67.6536 73.6595C68.0703 73.6595 68.487 73.4512 68.9036 73.2428L74.737 67.4095C74.9453 67.2012 75.1536 66.7845 75.1536 66.1595C75.1536 65.7428 74.9453 65.3262 74.737 64.9095ZM61.4036 61.1595C60.7786 61.1595 60.1536 60.5345 60.1536 59.9095C60.1536 59.2845 60.7786 58.6595 61.4036 58.6595C62.0286 58.6595 62.6536 59.2845 62.6536 59.9095C62.6536 60.5345 62.0286 61.1595 61.4036 61.1595Z" fill="white"/>
</svg>
