<svg width="108" height="108" viewBox="0 0 108 108" fill="none" xmlns="http://www.w3.org/2000/svg">
<rect x="2.67969" y="2.6001" width="102.643" height="102.643" rx="51.3213" fill="#181818" stroke="#262626" stroke-width="5"/>
<path d="M33.2807 69.5778L45.9641 56.7653L52.8182 63.3278L61.1953 56.0049L65.862 60.5549M74.8307 40.3799C74.8307 39.5511 74.5015 38.7562 73.9154 38.1702C73.3294 37.5841 72.5345 37.2549 71.7057 37.2549H36.2891C35.4603 37.2549 34.6654 37.5841 34.0794 38.1702C33.4933 38.7562 33.1641 39.5511 33.1641 40.3799V49.7549H74.8307V40.3799Z" stroke="white" stroke-width="4" stroke-linecap="round" stroke-linejoin="round"/>
<path d="M74.8307 47.6715V67.4632C74.8307 68.292 74.5015 69.0869 73.9154 69.6729C73.3294 70.259 72.5345 70.5882 71.7057 70.5882H41.4974M48.9057 43.5049H67.6557M40.5703 43.5049H42.6536M33.1641 47.6715V57.0466" stroke="white" stroke-width="4" stroke-linecap="round" stroke-linejoin="round"/>
</svg>
