<svg width="1440" height="609" viewBox="0 0 1440 609" fill="none" xmlns="http://www.w3.org/2000/svg">
<path d="M1439.48 297.645C1439.48 338.559 1419.42 377.584 1383.06 413.131C1346.68 448.679 1294.03 480.716 1228.92 507.632C1098.7 561.463 918.771 594.771 720 594.771C521.229 594.771 341.299 561.463 211.082 507.632C145.972 480.716 93.3154 448.679 56.9444 413.131C20.5752 377.584 0.519719 338.559 0.519719 297.645C0.519719 256.732 20.5752 217.706 56.9444 182.16C93.3154 146.612 145.972 114.575 211.082 87.6586C341.299 33.8272 521.229 0.519719 720 0.519719C918.771 0.519719 1098.7 33.8272 1228.92 87.6586C1294.03 114.575 1346.68 146.612 1383.06 182.16C1419.42 217.706 1439.48 256.732 1439.48 297.645Z" fill="#0F0E09" fill-opacity="0.01" stroke="url(#paint0_angular_14_2)" stroke-width="1.03944"/>
<path d="M1295.48 297.645C1295.48 330.34 1279.45 361.534 1250.37 389.959C1221.29 418.385 1179.17 444.009 1127.09 465.538C1022.93 508.597 879.005 535.242 719.998 535.242C560.991 535.242 417.061 508.597 312.903 465.538C260.822 444.009 218.71 418.385 189.626 389.959C160.543 361.534 144.517 330.34 144.517 297.645C144.517 264.951 160.543 233.756 189.626 205.331C218.71 176.905 260.822 151.282 312.903 129.752C417.061 86.6931 560.991 60.0486 719.998 60.0486C879.005 60.0486 1022.93 86.6931 1127.09 129.752C1179.17 151.282 1221.29 176.905 1250.37 205.331C1279.45 233.756 1295.48 264.951 1295.48 297.645Z" fill="#0F0E09" fill-opacity="0.01" stroke="url(#paint1_angular_14_2)" stroke-width="1.03944"/>
<path d="M1151.48 297.645C1151.48 322.12 1139.48 345.485 1117.69 366.788C1095.89 388.092 1064.32 407.301 1025.27 423.445C947.173 455.731 839.243 475.712 720.001 475.712C600.758 475.712 492.829 455.731 414.729 423.445C375.678 407.301 344.11 388.092 322.313 366.788C300.517 345.485 288.52 322.12 288.52 297.645C288.52 273.17 300.517 249.805 322.313 228.503C344.11 207.198 375.678 187.989 414.729 171.845C492.829 139.559 600.758 119.578 720.001 119.578C839.243 119.578 947.173 139.559 1025.27 171.845C1064.32 187.989 1095.89 207.198 1117.69 228.503C1139.48 249.805 1151.48 273.17 1151.48 297.645Z" fill="#0F0E09" fill-opacity="0.01" stroke="url(#paint2_angular_14_2)" stroke-width="1.03944"/>
<path d="M1007.48 297.645C1007.48 313.901 999.512 329.435 985.004 343.616C970.493 357.798 949.469 370.594 923.448 381.351C871.407 402.865 799.478 416.183 720 416.183C640.522 416.183 568.593 402.865 516.552 381.351C490.53 370.594 469.506 357.798 454.996 343.616C440.487 329.435 432.52 313.901 432.52 297.645C432.52 281.389 440.487 265.855 454.996 251.674C469.506 237.492 490.53 224.696 516.552 213.939C568.593 192.425 640.522 179.107 720 179.107C799.478 179.107 871.407 192.425 923.448 213.939C949.469 224.696 970.493 237.492 985.004 251.674C999.512 265.855 1007.48 281.389 1007.48 297.645Z" fill="#0F0E09" fill-opacity="0.01" stroke="url(#paint3_angular_14_2)" stroke-width="1.03944"/>
<g filter="url(#filter0_f_14_2)">
<circle cx="459.03" cy="244.866" r="9.77826" fill="url(#paint4_radial_14_2)"/>
</g>
<circle cx="305.97" cy="336.011" r="22.7314" fill="url(#paint5_radial_14_2)"/>
<circle cx="858.644" cy="577.139" r="31.167" fill="url(#paint6_radial_14_2)"/>
<circle cx="973.873" cy="345.992" r="12.6875" fill="url(#paint7_radial_14_2)"/>
<circle cx="461.461" cy="338.596" r="20.1465" fill="url(#paint8_radial_14_2)"/>
<circle cx="819.733" cy="402.37" r="16.2568" fill="url(#paint9_radial_14_2)"/>
<circle cx="1120.14" cy="354.703" r="19.0387" fill="url(#paint10_radial_14_2)"/>
<circle cx="501.41" cy="441.37" r="20.1465" fill="url(#paint11_radial_14_2)"/>
<defs>
<filter id="filter0_f_14_2" x="444.252" y="230.088" width="29.5565" height="29.5565" filterUnits="userSpaceOnUse" color-interpolation-filters="sRGB">
<feFlood flood-opacity="0" result="BackgroundImageFix"/>
<feBlend mode="normal" in="SourceGraphic" in2="BackgroundImageFix" result="shape"/>
<feGaussianBlur stdDeviation="2.5" result="effect1_foregroundBlur_14_2"/>
</filter>
<radialGradient id="paint0_angular_14_2" cx="0" cy="0" r="1" gradientUnits="userSpaceOnUse" gradientTransform="translate(720 297.645) rotate(90) scale(297.645 720)">
<stop stop-color="#E4FC22" stop-opacity="0"/>
<stop offset="0.192708" stop-color="#E4FC22" stop-opacity="0.51"/>
<stop offset="0.375" stop-color="#E4FC22" stop-opacity="0"/>
<stop offset="0.6875" stop-color="#E4FC22" stop-opacity="0"/>
<stop offset="1" stop-color="#E4FC22" stop-opacity="0.12"/>
</radialGradient>
<radialGradient id="paint1_angular_14_2" cx="0" cy="0" r="1" gradientUnits="userSpaceOnUse" gradientTransform="translate(719.998 297.645) rotate(90) scale(238.116 576)">
<stop stop-color="#E4FC22" stop-opacity="0"/>
<stop offset="0.192708" stop-color="#E4FC22" stop-opacity="0.51"/>
<stop offset="0.375" stop-color="#E4FC22" stop-opacity="0"/>
<stop offset="0.6875" stop-color="#E4FC22" stop-opacity="0"/>
<stop offset="1" stop-color="#E4FC22" stop-opacity="0.12"/>
</radialGradient>
<radialGradient id="paint2_angular_14_2" cx="0" cy="0" r="1" gradientUnits="userSpaceOnUse" gradientTransform="translate(720.001 297.645) rotate(90) scale(178.587 432)">
<stop stop-color="#E4FC22" stop-opacity="0"/>
<stop offset="0.192708" stop-color="#E4FC22" stop-opacity="0.51"/>
<stop offset="0.375" stop-color="#E4FC22" stop-opacity="0"/>
<stop offset="0.6875" stop-color="#E4FC22" stop-opacity="0"/>
<stop offset="1" stop-color="#E4FC22" stop-opacity="0.12"/>
</radialGradient>
<radialGradient id="paint3_angular_14_2" cx="0" cy="0" r="1" gradientUnits="userSpaceOnUse" gradientTransform="translate(720 297.645) rotate(90) scale(119.058 288)">
<stop stop-color="#E4FC22" stop-opacity="0"/>
<stop offset="0.192708" stop-color="#E4FC22" stop-opacity="0.51"/>
<stop offset="0.375" stop-color="#E4FC22" stop-opacity="0"/>
<stop offset="0.6875" stop-color="#E4FC22" stop-opacity="0"/>
<stop offset="1" stop-color="#E4FC22" stop-opacity="0.12"/>
</radialGradient>
<radialGradient id="paint4_radial_14_2" cx="0" cy="0" r="1" gradientUnits="userSpaceOnUse" gradientTransform="translate(456.476 237.125) rotate(81.7052) scale(17.7042)">
<stop stop-color="#808080"/>
<stop offset="0.611328" stop-color="#0C0C0B"/>
<stop offset="1" stop-color="#222222"/>
</radialGradient>
<radialGradient id="paint5_radial_14_2" cx="0" cy="0" r="1" gradientUnits="userSpaceOnUse" gradientTransform="translate(327.241 354.159) rotate(-133.864) scale(52.2631)">
<stop stop-color="#E4FC22"/>
<stop offset="0.399206" stop-color="#96A613"/>
<stop offset="0.738015" stop-color="#868F3B"/>
<stop offset="1" stop-color="white"/>
</radialGradient>
<radialGradient id="paint6_radial_14_2" cx="0" cy="0" r="1" gradientUnits="userSpaceOnUse" gradientTransform="translate(887.808 602.021) rotate(-133.864) scale(71.6578)">
<stop stop-color="#E4FC22"/>
<stop offset="0.399206" stop-color="#96A613"/>
<stop offset="0.738015" stop-color="#868F3B"/>
<stop offset="1" stop-color="white"/>
</radialGradient>
<radialGradient id="paint7_radial_14_2" cx="0" cy="0" r="1" gradientUnits="userSpaceOnUse" gradientTransform="translate(985.745 356.121) rotate(-133.864) scale(29.1705)">
<stop stop-color="#E4FC22"/>
<stop offset="0.399206" stop-color="#96A613"/>
<stop offset="0.738015" stop-color="#868F3B"/>
<stop offset="1" stop-color="white"/>
</radialGradient>
<radialGradient id="paint8_radial_14_2" cx="0" cy="0" r="1" gradientUnits="userSpaceOnUse" gradientTransform="translate(487.488 358.742) rotate(-140.34) scale(52.7009)">
<stop stop-color="#6B6B6B"/>
<stop offset="0.234375" stop-color="#323336"/>
<stop offset="0.770833" stop-color="#262627"/>
<stop offset="1" stop-color="#616161"/>
</radialGradient>
<radialGradient id="paint9_radial_14_2" cx="0" cy="0" r="1" gradientUnits="userSpaceOnUse" gradientTransform="translate(840.735 418.626) rotate(-140.34) scale(42.526)">
<stop stop-color="#6B6B6B"/>
<stop offset="0.234375" stop-color="#323336"/>
<stop offset="0.770833" stop-color="#262627"/>
<stop offset="1" stop-color="#616161"/>
</radialGradient>
<radialGradient id="paint10_radial_14_2" cx="0" cy="0" r="1" gradientUnits="userSpaceOnUse" gradientTransform="translate(1144.74 373.742) rotate(-140.34) scale(49.8031)">
<stop stop-color="#6B6B6B"/>
<stop offset="0.234375" stop-color="#323336"/>
<stop offset="0.770833" stop-color="#262627"/>
<stop offset="1" stop-color="#616161"/>
</radialGradient>
<radialGradient id="paint11_radial_14_2" cx="0" cy="0" r="1" gradientUnits="userSpaceOnUse" gradientTransform="translate(527.437 461.516) rotate(-140.34) scale(52.7009)">
<stop stop-color="#6B6B6B"/>
<stop offset="0.234375" stop-color="#323336"/>
<stop offset="0.770833" stop-color="#262627"/>
<stop offset="1" stop-color="#616161"/>
</radialGradient>
</defs>
</svg>
